name C:\Users\u0101727\Documents\MyRepositories\predictivesimulations\OpenSimModel\subject1\EMG\EMG_gait_61.mot
datacolumns 25
datarows 22
range 1.03600000 1.05700000
endheader
time	HamL_r	TA_r	PerL_r	GL_r	HamM_r	Sol_r	VL_r	VM_r	PerB_l	TA_l	PerL_l	GL_l	GM_l	Sol_l	VL_l	VM_l	AddL_l	RF_l	TFL_l	GluMed_l	HamL_l	HamM_l	GluMed_r	RF_r	
          1.03600000	          0.00591922	          0.00363531	          0.00324532	          0.00413601	          0.00379122	          0.00803073	          0.00495239	          0.00375032	          0.03922692	          0.00865604	          0.01922857	          0.01737894	          0.04468451	          0.09652066	          0.02378250	          0.02003842	          0.00576740	          0.01128644	          0.01892287	          0.02217776	          0.00500562	          0.00467380	          0.00508819	          0.00417149	
          1.03700000	          0.00588783	          0.00363300	          0.00327631	          0.00409726	          0.00377740	          0.00789209	          0.00495556	          0.00371515	          0.03905944	          0.00876425	          0.01927502	          0.01730634	          0.04569354	          0.09564941	          0.02346854	          0.01968134	          0.00565196	          0.01088895	          0.01907057	          0.02232519	          0.00492763	          0.00463973	          0.00508024	          0.00411514	
          1.03800000	          0.00585419	          0.00363071	          0.00330701	          0.00405836	          0.00376481	          0.00776361	          0.00495869	          0.00367895	          0.03890532	          0.00886463	          0.01932509	          0.01723780	          0.04672588	          0.09472397	          0.02316771	          0.01932832	          0.00554750	          0.01050282	          0.01920933	          0.02246488	          0.00485430	          0.00460836	          0.00507347	          0.00406641	
          1.03900000	          0.00581850	          0.00362851	          0.00333734	          0.00401932	          0.00375345	          0.00764515	          0.00496156	          0.00364175	          0.03876497	          0.00895735	          0.01937891	          0.01717414	          0.04778195	          0.09375136	          0.02287865	          0.01897862	          0.00545388	          0.01012822	          0.01933847	          0.02259563	          0.00478601	          0.00457970	          0.00506796	          0.00402505	
          1.04000000	          0.00578098	          0.00362649	          0.00336726	          0.00398009	          0.00374326	          0.00753659	          0.00496396	          0.00360356	          0.03863898	          0.00904249	          0.01943658	          0.01711615	          0.04886189	          0.09273868	          0.02259981	          0.01863162	          0.00537095	          0.00976538	          0.01945726	          0.02271628	          0.00472313	          0.00455373	          0.00506379	          0.00399085	
          1.04100000	          0.00574179	          0.00362470	          0.00339677	          0.00394067	          0.00373418	          0.00743777	          0.00496579	          0.00356436	          0.03852799	          0.00912009	          0.01949815	          0.01706460	          0.04996547	          0.09169260	          0.02232945	          0.01828676	          0.00529856	          0.00941453	          0.01956509	          0.02282581	          0.00466594	          0.00453047	          0.00506105	          0.00396361	
          1.04200000	          0.00570110	          0.00362316	          0.00342587	          0.00390107	          0.00372614	          0.00734844	          0.00496709	          0.00352409	          0.03843235	          0.00919008	          0.01956347	          0.01702031	          0.05109217	          0.09061937	          0.02206559	          0.01794341	          0.00523654	          0.00907583	          0.01966161	          0.02292351	          0.00461472	          0.00450989	          0.00505978	          0.00394313	
          1.04300000	          0.00565901	          0.00362189	          0.00345454	          0.00386138	          0.00371905	          0.00726826	          0.00496801	          0.00348267	          0.03835218	          0.00925233	          0.01963233	          0.01698430	          0.05224141	          0.08952522	          0.02180592	          0.01760101	          0.00518468	          0.00874939	          0.01974674	          0.02300896	          0.00456967	          0.00449197	          0.00506002	          0.00392926	
          1.04400000	          0.00561559	          0.00362086	          0.00348276	          0.00382172	          0.00371279	          0.00719683	          0.00496874	          0.00344006	          0.03828764	          0.00930669	          0.01970450	          0.01695778	          0.05341296	          0.08841651	          0.02154783	          0.01725918	          0.00514277	          0.00843530	          0.01982060	          0.02308203	          0.00453099	          0.00447667	          0.00506184	          0.00392181	
          1.04500000	          0.00557091	          0.00362000	          0.00351047	          0.00378223	          0.00370727	          0.00713375	          0.00496944	          0.00339631	          0.03823914	          0.00935306	          0.01977994	          0.01694225	          0.05460691	          0.08729925	          0.02128845	          0.01691782	          0.00511057	          0.00813363	          0.01988346	          0.02314283	          0.00449884	          0.00446393	          0.00506529	          0.00392057	
          1.04600000	          0.00552503	          0.00361925	          0.00353758	          0.00374307	          0.00370235	          0.00707868	          0.00497028	          0.00335158	          0.03820721	          0.00939139	          0.01985867	          0.01693947	          0.05582343	          0.08617916	          0.02102477	          0.01657697	          0.00508780	          0.00784445	          0.01993565	          0.02319163	          0.00447335	          0.00445369	          0.00507044	          0.00392532	
          1.04700000	          0.00547801	          0.00361850	          0.00356396	          0.00370443	          0.00369792	          0.00703136	          0.00497137	          0.00330611	          0.03819224	          0.00942169	          0.01994066	          0.01695132	          0.05706245	          0.08506200	          0.02075392	          0.01623669	          0.00507414	          0.00756779	          0.01997762	          0.02322878	          0.00445463	          0.00444588	          0.00507737	          0.00393581	
          1.04800000	          0.00542991	          0.00361764	          0.00358946	          0.00366657	          0.00369387	          0.00699153	          0.00497278	          0.00326018	          0.03819440	          0.00944406	          0.02002579	          0.01697968	          0.05832365	          0.08395366	          0.02047363	          0.01589690	          0.00506922	          0.00730359	          0.02000992	          0.02325468	          0.00444282	          0.00444042	          0.00508611	          0.00395175	
          1.04900000	          0.00538075	          0.00361655	          0.00361391	          0.00362976	          0.00369014	          0.00695896	          0.00497459	          0.00321409	          0.03821374	          0.00945868	          0.02011405	          0.01702635	          0.05960660	          0.08285990	          0.02018249	          0.01555740	          0.00507269	          0.00705174	          0.02003315	          0.02326982	          0.00443810	          0.00443722	          0.00509665	          0.00397279	
          1.05000000	          0.00533058	          0.00361510	          0.00363714	          0.00359426	          0.00368670	          0.00693333	          0.00497682	          0.00316815	          0.03825022	          0.00946583	          0.02020571	          0.01709304	          0.06091102	          0.08178608	          0.01987979	          0.01521791	          0.00508416	          0.00681208	          0.02004788	          0.02327466	          0.00444061	          0.00443618	          0.00510899	          0.00399857	
          1.05100000	          0.00527947	          0.00361315	          0.00365897	          0.00356029	          0.00368355	          0.00691430	          0.00497945	          0.00312262	          0.03830377	          0.00946591	          0.02030132	          0.01718132	          0.06223693	          0.08073699	          0.01956512	          0.01487810	          0.00510324	          0.00658437	          0.02005462	          0.02326961	          0.00445049	          0.00443726	          0.00512308	          0.00402869	
          1.05200000	          0.00522763	          0.00361055	          0.00367927	          0.00352806	          0.00368069	          0.00690145	          0.00498242	          0.00307776	          0.03837430	          0.00945936	          0.02040159	          0.01729272	          0.06358442	          0.07971665	          0.01923806	          0.01453759	          0.00512953	          0.00636832	          0.02005380	          0.02325502	          0.00446786	          0.00444051	          0.00513885	          0.00406270	
          1.05300000	          0.00517531	          0.00360716	          0.00369794	          0.00349772	          0.00367808	          0.00689433	          0.00498561	          0.00303378	          0.03846169	          0.00944673	          0.02050738	          0.01742874	          0.06495368	          0.07872847	          0.01889810	          0.01419611	          0.00516253	          0.00616359	          0.02004573	          0.02323129	          0.00449283	          0.00444604	          0.00515621	          0.00410012	
          1.05400000	          0.00512283	          0.00360284	          0.00371489	          0.00346942	          0.00367569	          0.00689248	          0.00498887	          0.00299089	          0.03856574	          0.00942879	          0.02061977	          0.01759079	          0.06634538	          0.07777564	          0.01854490	          0.01385350	          0.00520177	          0.00596985	          0.02003060	          0.02319906	          0.00452552	          0.00445395	          0.00517508	          0.00414043	
          1.05500000	          0.00507045	          0.00359756	          0.00373011	          0.00344328	          0.00367345	          0.00689543	          0.00499209	          0.00294924	          0.03868612	          0.00940648	          0.02074002	          0.01778017	          0.06776087	          0.07686123	          0.01817851	          0.01350979	          0.00524675	          0.00578677	          0.02000857	          0.02315923	          0.00456600	          0.00446438	          0.00519542	          0.00418311	
          1.05600000	          0.00501842	          0.00359139	          0.00374360	          0.00341939	          0.00367131	          0.00690273	          0.00499518	          0.00290901	          0.03882237	          0.00938078	          0.02086935	          0.01799809	          0.06920166	          0.07598809	          0.01779952	          0.01316504	          0.00529698	          0.00561407	          0.01997992	          0.02311285	          0.00461437	          0.00447741	          0.00521714	          0.00422767	
          1.05700000	          0.00496694	          0.00358441	          0.00375541	          0.00339779	          0.00366921	          0.00691392	          0.00499811	          0.00287033	          0.03897393	          0.00935263	          0.02100889	          0.01824572	          0.07066893	          0.07515878	          0.01740903	          0.01281936	          0.00535192	          0.00545146	          0.01994501	          0.02306105	          0.00467070	          0.00449310	          0.00524020	          0.00427364	
